PathFileType	4	(X/Y/Z)	Patient4_TMGait_0pt5_02_right_24.trc.trc
DataRate	CameraRate	NumFrames	NumMarkers	Units	OrigDataRate	OrigDataStartFrame	OrigNumFrames
74.468085106383	74.468085106383	5	33	mm	74.468085106383	36	       141
Frame#	Time	Sacral			L.Shoulder			Chest			R.Shoulder			Neck			R.ASIS			L.ASIS			R.Thigh.Superior			R.Thigh.Lateral			R.Thigh.Inferior			R.Patella			L.Thigh.Superior			L.Thigh.Lateral			L.Thigh.Inferior			L.Patella			L.Shank.Superior			L.Shank.Lateral			L.Shank.Inferior			R.Shank.Superior			R.Shank.Lateral			R.Shank.Inferior			R.Heel			R.Midfoot.Superior			R.Midfoot.Lateral			R.Toe			L.Heel			L.Midfoot.Lateral			L.Midfoot.Superior			L.Toe			L.Elbow			L.Wrist			R.Elbow			R.Wrist			
		X1	Y1	Z1	X2	Y2	Z2	X3	Y3	Z3	X4	Y4	Z4	X5	Y5	Z5	X6	Y6	Z6	X7	Y7	Z7	X8	Y8	Z8	X9	Y9	Z9	X10	Y10	Z10	X11	Y11	Z11	X12	Y12	Z12	X13	Y13	Z13	X14	Y14	Z14	X15	Y15	Z15	X16	Y16	Z16	X17	Y17	Z17	X18	Y18	Z18	X19	Y19	Z19	X20	Y20	Z20	X21	Y21	Z21	X22	Y22	Z22	X23	Y23	Z23	X24	Y24	Z24	X25	Y25	Z25	X26	Y26	Z26	X27	Y27	Z27	X28	Y28	Z28	X29	Y29	Z29	X30	Y30	Z30	X31	Y31	Z31	X32	Y32	Z32	X33	Y33	Z33	

36	31.710000000000	563.375151274547	1005.903461767070	488.405207446696	743.828043383351	1436.216730787807	316.695594829294	842.998174191205	1364.251177546119	479.744691479706	752.519840480173	1436.924069725826	652.023851992141	737.900032206590	1494.569881660290	468.914570676702	787.828840754161	937.393020563260	606.116066636908	777.255648212966	962.289217587787	332.769406340606	847.172862721532	748.953013080522	579.546637736983	773.991964343797	634.810434870953	637.940359358728	860.323187031183	589.692734113405	561.764183371698	870.155773577534	501.580530523318	569.531279514843	797.263500598087	736.782623482361	352.157942507500	693.320268636224	632.982175992579	290.397361993700	768.721749709470	540.060921183586	346.671400093127	754.758655878744	457.808439594154	346.156705682537	690.267923333521	401.895188668609	341.702889717312	554.517875691453	347.713259102203	292.652934559970	549.166587736043	220.857356014131	353.434759991240	850.562777175082	411.297661485655	575.869237627122	786.183796066045	301.066298322821	633.320801549510	841.200956275139	210.789673528839	573.822191918553	720.987475855980	42.282943159009	537.988400544088	891.417016063977	97.954378181021	577.736466078097	803.107356786587	36.596417267860	614.461977659583	1010.992831207579	45.779809378209	607.183037895295	363.598560315720	137.205254350890	392.440043676831	425.599558399040	99.087327051720	312.425720005356	527.923350529299	120.123807968120	332.929731216360	617.821659184599	31.911545273943	306.251203808394	712.079120925393	1089.453292131344	186.674986419956	941.156647247490	970.560820954567	192.277235202327	657.055601891298	1104.608943527206	763.341650631488	733.252816770112	854.934394210957	778.116458246630	
37	31.723428571429	564.327062056507	1007.344356509128	492.072865123280	743.732323068831	1437.934918166125	320.253496312869	844.374792639895	1365.399859198008	482.170772315646	755.599669186941	1437.698372762313	655.435161581079	739.105592063214	1495.765920412917	472.771227927487	789.513946168428	938.332407873607	607.988858474764	777.149174396337	963.800002177036	335.008156788275	845.896290803169	747.760114269642	582.371948525884	770.836256307456	634.942846315337	639.993810241945	856.413862073313	588.832921386525	563.520036166265	865.176101470612	501.033908228379	570.822663607043	802.836681244551	739.701933072092	354.648480210727	703.036580338453	633.103350546387	292.351255498057	781.510409396194	541.843174778812	348.458874836154	768.556947220260	458.143717243120	347.061179642549	701.760528410684	402.560555393587	343.060375095363	563.858944358338	353.354002302992	294.605919623570	554.418264011267	226.725399970896	355.016665987023	845.255212316868	411.032909283558	577.129347667145	780.468910063272	300.974424576909	634.390874046524	835.026793105857	210.645303299240	574.510367851074	714.412158511789	42.231239796674	538.209695390860	884.753494867101	98.002257112497	578.025809192555	796.517333745402	36.605926947834	614.710573714214	1004.371658789353	45.832794924817	607.487753686568	366.051274529723	151.694006633014	394.549255758310	425.715441711229	110.738293310037	314.036672660884	529.302018010894	125.993139140593	334.162162845500	613.595256510074	31.611226975115	306.538886658578	712.472542929888	1090.432779387909	191.554269596798	932.232904646964	952.142845589816	197.016861272687	664.705912414154	1104.385538453166	768.414924935861	751.730332379142	858.204453700947	780.188130857035	
38	31.736857142857	565.002950373357	1008.619019389063	495.532029824574	743.535478252253	1439.355781021254	323.585551310676	845.633930533404	1366.243322029398	484.375049103470	758.614118917354	1438.219663786714	658.629398953913	740.279473609033	1496.728379732546	476.399826125591	790.869572979054	939.101105472519	609.817776685743	776.852161867250	964.933103580675	337.126809417877	844.326816377605	746.549818000999	585.081709031161	767.576783675020	634.999410973589	642.015142323147	852.356120317282	587.974361142117	565.196686118651	860.097333943877	500.492343717220	572.088435110815	808.312212077278	742.719233167606	357.236499482820	712.933912524977	633.425470112702	294.117933432005	794.326360851985	544.001557455142	350.227939845545	782.511529411019	458.930586132512	348.016087248044	713.695846155275	403.515868947185	344.360502101432	573.884567090421	359.013471457606	296.548278268169	560.579132703497	232.737904851737	356.685743187327	839.878722567435	410.741561097418	578.328355116382	774.719340788181	300.842139508324	635.409587215298	828.817920250214	210.472700208580	575.141351078251	707.766957362559	42.204792275291	538.405547234517	878.072919841765	97.995117119940	578.258976955638	789.859089572579	36.591350880483	614.908685420812	997.709872065313	45.736236395462	607.729378495998	369.864873752257	165.823165691398	396.894079188601	427.231103924712	122.417023705793	315.831383951624	531.806056202557	132.247071218570	335.560535937484	610.745739726676	31.787510245319	306.814860009839	712.551822223413	1091.064728982624	196.229992930074	921.589292019598	934.827407917775	201.533246641485	672.789155974556	1103.945248856616	773.493030476206	770.532939860020	861.782181459469	782.314118984616	
39	31.750285714286	565.409177426052	1009.719213720326	498.756807561346	743.310444966705	1440.464623908928	326.646101224653	846.770265267273	1366.787716268147	486.368178186550	761.482435595385	1438.517836948241	661.567754375768	741.443655811409	1497.466696445019	479.731282451446	791.886375194711	939.719885879207	611.655087128170	776.401445780365	965.696453623176	339.167632778937	842.591013085024	745.428826155710	587.617225447082	764.396720026967	635.024618330138	643.995069307156	848.351090970379	587.169154950073	566.800619425543	855.116222495432	499.968192836566	573.347691530240	813.556622670339	745.827868471353	359.903802769669	722.778626444928	634.030078900996	295.686919644957	806.896883869715	546.575235641587	351.925852650423	796.374994848104	460.234036983949	348.947174010868	725.877679906888	404.804336692115	345.543612691087	584.413358394724	364.545323688103	298.430997267309	567.660311792351	238.675740456660	358.363576376938	834.592104463547	410.431537182041	579.475962640405	769.053856930735	300.699787533665	636.389663446446	822.650018140293	210.275364037672	575.722726529057	701.065074167605	42.213347181967	538.587176646085	871.393255402839	97.939756985951	578.454451758486	783.143569193905	36.561554785367	615.066314639781	991.018851458290	45.505316890578	607.924489160782	375.081127393663	178.970518124376	399.384356873336	430.305956262501	133.577692598847	317.738773724613	535.607846280696	138.603605237342	337.037637983806	609.706030347772	32.528524242035	307.056956615636	712.119040062540	1091.368475381725	200.702801147939	909.167806743018	918.698936619879	205.754742589065	681.327200008904	1103.288077135420	778.456634172147	789.597970021202	865.648392346402	784.434261677399	
40	31.763714285714	565.558858116948	1010.654350020899	501.738222534674	743.121489827882	1441.270865720093	329.405281533161	847.783083845134	1367.064120743385	488.168634812478	764.136901161600	1438.642317689290	664.225748905172	742.615473895969	1498.006144142717	482.714308739458	792.571209469451	940.216425096548	613.539358487591	775.830838276220	966.138550094479	341.174233131202	840.794672913712	744.467912584278	589.955955875205	761.403594764266	635.048046854777	645.917031014918	844.541278483064	586.446739853772	568.345529478333	850.371350451247	499.466946675722	574.607305418838	818.453503830877	749.018637332293	362.614153031793	732.347495437683	634.975454148252	297.059423411287	818.984802475684	549.579640236312	353.499686621025	809.928684785189	462.094373581768	349.783256727256	738.130313755221	406.447326054786	346.561562080205	595.281723962967	369.774839738044	300.203594674124	575.686774643074	244.287982940962	359.971234936273	829.503544296245	410.111540505317	580.576383840460	763.549734030458	300.574013444950	637.335707913817	816.575423404262	210.061684640425	576.261878138174	694.324668958830	42.262905778349	538.763271633954	864.728879647434	97.849611938053	578.630124196058	776.388191597482	36.526446232870	615.194216646014	984.311141534719	45.169039179330	608.090979343381	381.727941568053	190.513774927945	401.913854566628	435.084034022622	143.656960905509	319.671902322150	540.886092259011	144.729522600683	338.502234867185	610.909112626469	33.840831071016	307.238812504727	711.007086975973	1091.398866968465	204.976357513022	894.941535644534	903.819849271440	209.613759118197	690.318087245643	1102.448545532951	783.192207307645	808.869100862995	869.819638699089	786.475108408141	
